<?xml version="1.0" encoding="UTF-8"?>
<!DOCTYPE svg PUBLIC "-//W3C//DTD SVG 1.1//EN" "http://www.w3.org/Graphics/SVG/1.1/DTD/svg11.dtd">
<svg xmlns="http://www.w3.org/2000/svg" version="1.1" width="1024px" height="1024px" style="shape-rendering:geometricPrecision; text-rendering:geometricPrecision; image-rendering:optimizeQuality; fill-rule:evenodd; clip-rule:evenodd" xmlns:xlink="http://www.w3.org/1999/xlink">
<g><path style="opacity:1" fill="#fefefe" d="M -0.5,-0.5 C 340.833,-0.5 682.167,-0.5 1023.5,-0.5C 1023.5,340.833 1023.5,682.167 1023.5,1023.5C 682.167,1023.5 340.833,1023.5 -0.5,1023.5C -0.5,682.167 -0.5,340.833 -0.5,-0.5 Z"/></g>
<g><path style="opacity:1" fill="#0e948d" d="M 852.5,479.5 C 802.5,479.5 752.5,479.5 702.5,479.5C 701.665,451.815 694.165,426.148 680,402.5C 674.898,395.366 668.065,390.866 659.5,389C 637.234,390.472 618.4,383.306 603,367.5C 595.835,358.357 591.169,348.024 589,336.5C 588.333,305.5 588.333,274.5 589,243.5C 595.907,213.593 614.407,195.426 644.5,189C 689.833,188.333 735.167,188.333 780.5,189C 824.119,198.948 848.286,226.115 853,270.5C 853.832,340.335 853.665,410.001 852.5,479.5 Z"/></g>
<g><path style="opacity:1" fill="#fefefe" d="M 646.5,237.5 C 688.501,237.333 730.501,237.5 772.5,238C 788.036,241.203 798.203,250.369 803,265.5C 803.667,333.5 803.667,401.5 803,469.5C 800.282,474.948 795.782,477.448 789.5,477C 779.5,477.667 769.5,477.667 759.5,477C 753.785,476.285 750.285,473.118 749,467.5C 746.114,432.508 735.447,400.175 717,370.5C 714.834,363.001 717.334,357.834 724.5,355C 736.167,354.667 747.833,354.333 759.5,354C 762.034,353.484 764.2,352.317 766,350.5C 767.647,326.254 767.98,301.921 767,277.5C 765.048,275.106 762.548,273.606 759.5,273C 738.103,272.034 716.769,272.367 695.5,274C 693.622,275.543 692.122,277.376 691,279.5C 690.667,296.5 690.333,313.5 690,330.5C 687.972,339.265 682.472,343.265 673.5,342.5C 663.112,341.612 652.778,340.445 642.5,339C 640.19,337.363 638.69,335.196 638,332.5C 637.333,303.833 637.333,275.167 638,246.5C 639.688,242.315 642.521,239.315 646.5,237.5 Z"/></g>
<g><path style="opacity:1" fill="#117bc5" d="M 307.5,478.5 C 306.903,477.861 306.07,477.528 305,477.5C 273.683,478.148 242.516,478.815 211.5,479.5C 190.388,476.708 177.221,465.042 172,444.5C 171.333,383.5 171.333,322.5 172,261.5C 180.681,222.485 204.514,198.318 243.5,189C 289.5,188.333 335.5,188.333 381.5,189C 409.447,194.947 426.947,211.78 434,239.5C 434.667,265.167 434.667,290.833 434,316.5C 429.356,338.296 417.856,355.463 399.5,368C 389.469,373.016 379.469,378.016 369.5,383C 348.419,397.622 334.586,417.456 328,442.5C 326.647,451.341 324.647,460.008 322,468.5C 318.416,473.574 313.583,476.907 307.5,478.5 Z"/></g>
<g><path style="opacity:1" fill="#fefefe" d="M 249.5,237.5 C 292.167,237.5 334.833,237.5 377.5,237.5C 381.147,238.983 383.647,241.65 385,245.5C 385.667,267.833 385.667,290.167 385,312.5C 383.419,318.086 380.252,322.586 375.5,326C 329.838,344.327 299.338,376.827 284,423.5C 282.073,428.428 278.573,431.594 273.5,433C 257.833,433.667 242.167,433.667 226.5,433C 224.376,431.878 222.543,430.378 221,428.5C 219.85,401.214 219.35,373.88 219.5,346.5C 219.35,319.12 219.85,291.786 221,264.5C 226.176,250.822 235.676,241.822 249.5,237.5 Z"/></g>
<g><path style="opacity:1" fill="#feb112" d="M 262.5,272.5 C 278.837,272.333 295.17,272.5 311.5,273C 314.973,273.319 317.806,274.819 320,277.5C 321.639,295.076 321.972,312.742 321,330.5C 319.427,335.071 316.26,337.904 311.5,339C 296.5,339.667 281.5,339.667 266.5,339C 261.319,338.169 257.819,335.336 256,330.5C 255.333,313.5 255.333,296.5 256,279.5C 257.018,275.985 259.185,273.652 262.5,272.5 Z"/></g>
<g><path style="opacity:1" fill="#016ebf" d="M 377.5,237.5 C 334.833,237.5 292.167,237.5 249.5,237.5C 250.609,236.71 251.942,236.21 253.5,236C 294.167,235.333 334.833,235.333 375.5,236C 377.343,236.159 378.009,236.659 377.5,237.5 Z"/></g>
<g><path style="opacity:1" fill="#08848b" d="M 615.5,465.5 C 615.265,464.903 614.765,464.57 614,464.5C 545.36,465.162 476.86,465.828 408.5,466.5C 405.925,465.432 403.758,463.765 402,461.5C 400.897,455.244 400.397,448.911 400.5,442.5C 400.667,437.167 400.833,431.833 401,426.5C 402.105,423.063 404.272,420.563 407.5,419C 476.5,418.333 545.5,418.333 614.5,419C 617.728,420.563 619.895,423.063 621,426.5C 621.667,437.167 621.667,447.833 621,458.5C 620.065,461.595 618.231,463.929 615.5,465.5 Z"/></g>
<g><path style="opacity:1" fill="#006064" d="M 615.5,465.5 C 546.541,466.493 477.541,466.827 408.5,466.5C 476.86,465.828 545.36,465.162 614,464.5C 614.765,464.57 615.265,464.903 615.5,465.5 Z"/></g>
<g><path style="opacity:1" fill="#0461b9" d="M 307.5,478.5 C 275.544,479.485 243.544,479.819 211.5,479.5C 242.516,478.815 273.683,478.148 305,477.5C 306.07,477.528 306.903,477.861 307.5,478.5 Z"/></g>
<g><path style="opacity:1" fill="#fe633e" d="M 702.5,479.5 C 752.5,479.5 802.5,479.5 852.5,479.5C 852.667,558.501 852.5,637.501 852,716.5C 841.703,760.13 814.203,783.63 769.5,787C 728.167,787.667 686.833,787.667 645.5,787C 614.24,781.74 595.407,763.574 589,732.5C 588.333,700.5 588.333,668.5 589,636.5C 595.484,611.034 611.317,594.534 636.5,587C 660.731,587.316 678.231,576.816 689,555.5C 699.48,531.262 703.98,505.928 702.5,479.5 Z"/></g>
<g><path style="opacity:1" fill="#feb112" d="M 206.5,503.5 C 239.835,503.333 273.168,503.5 306.5,504C 314.639,505.468 320.472,509.968 324,517.5C 327.792,546.929 341.292,570.763 364.5,589C 377.954,595.56 390.954,602.893 403.5,611C 419.631,623.75 429.798,640.25 434,660.5C 434.667,685.167 434.667,709.833 434,734.5C 429.669,758.498 416.169,774.998 393.5,784C 388.594,785.476 383.594,786.476 378.5,787C 334.5,787.667 290.5,787.667 246.5,787C 215.102,781.579 192.269,764.746 178,736.5C 174.986,729.791 172.986,722.791 172,715.5C 171.333,656.167 171.333,596.833 172,537.5C 176.795,519.204 188.295,507.871 206.5,503.5 Z"/></g>
<g><path style="opacity:1" fill="#08838b" d="M 613.5,553.5 C 545.335,552.667 477.001,552.167 408.5,552C 406.922,550.906 405.255,550.072 403.5,549.5C 402.034,548.653 401.2,547.32 401,545.5C 400.333,534.833 400.333,524.167 401,513.5C 402.105,510.063 404.272,507.563 407.5,506C 476.5,505.333 545.5,505.333 614.5,506C 617.333,507.5 619.5,509.667 621,512.5C 621.667,523.5 621.667,534.5 621,545.5C 620.354,549.977 617.854,552.644 613.5,553.5 Z"/></g>
<g><path style="opacity:1" fill="#fefefe" d="M 803.5,706.5 C 803.167,709.167 802.833,711.833 802.5,714.5C 796.87,727.959 786.87,736.125 772.5,739C 731.167,739.667 689.833,739.667 648.5,739C 642.984,737.316 639.318,733.816 637.5,728.5C 637.5,699.833 637.5,671.167 637.5,642.5C 639.357,638.99 642.024,636.157 645.5,634C 679.722,632.144 706.222,616.978 725,588.5C 736.262,569.622 743.929,549.288 748,527.5C 749.167,526.333 750.333,525.167 751.5,524C 767.408,522.364 783.408,522.031 799.5,523C 801.333,523.5 802.5,524.667 803,526.5C 803.5,586.499 803.667,646.499 803.5,706.5 Z"/></g>
<g><path style="opacity:1" fill="#fefefe" d="M 384.5,731.5 C 382.887,735.609 379.887,738.109 375.5,739C 334.168,739.5 292.835,739.667 251.5,739.5C 238.006,736.674 228.339,729.007 222.5,716.5C 221.367,713.262 220.533,709.929 220,706.5C 219.176,656.126 219.343,605.792 220.5,555.5C 221.749,553.864 223.416,552.697 225.5,552C 243.566,551.041 261.566,551.374 279.5,553C 280.667,554.167 281.833,555.333 283,556.5C 289.682,575.543 299.682,592.543 313,607.5C 315.161,611.698 314.828,615.698 312,619.5C 303.93,626.9 296.596,634.9 290,643.5C 289.333,661.5 289.333,679.5 290,697.5C 291.27,701.77 294.104,704.27 298.5,705C 307.167,705.667 315.833,705.667 324.5,705C 328.165,703.332 330.332,700.499 331,696.5C 331.333,684.5 331.667,672.5 332,660.5C 338.135,653.364 344.635,646.531 351.5,640C 355.029,637.946 358.362,638.279 361.5,641C 368.624,644.98 375.124,649.814 381,655.5C 382.861,657.888 384.194,660.554 385,663.5C 385.812,686.21 385.646,708.876 384.5,731.5 Z"/></g>
<g><path style="opacity:1" fill="#005d64" d="M 403.5,549.5 C 405.255,550.072 406.922,550.906 408.5,552C 477.001,552.167 545.335,552.667 613.5,553.5C 544.833,553.667 476.166,553.5 407.5,553C 405.676,552.34 404.343,551.173 403.5,549.5 Z"/></g>
<g><path style="opacity:1" fill="#fe9901" d="M 220.5,555.5 C 219.343,605.792 219.176,656.126 220,706.5C 220.533,709.929 221.367,713.262 222.5,716.5C 222.19,717.738 221.69,717.738 221,716.5C 220.333,713.833 219.667,711.167 219,708.5C 218.333,657.833 218.333,607.167 219,556.5C 219.333,555.833 219.667,555.167 220,554.5C 220.399,554.728 220.565,555.062 220.5,555.5 Z"/></g>
<g><path style="opacity:1" fill="#fe461c" d="M 802.5,714.5 C 802.833,711.833 803.167,709.167 803.5,706.5C 804.333,647.001 804.833,587.335 805,527.5C 805.667,587.833 805.667,648.167 805,708.5C 804.76,710.852 803.927,712.852 802.5,714.5 Z"/></g>
<g><path style="opacity:1" fill="#fe633e" d="M 761.5,704.5 C 760.279,703.535 758.946,703.702 757.5,705C 740.662,705.168 723.995,705.668 707.5,706.5C 702.668,705.664 699.335,702.998 697.5,698.5C 698.332,681.005 698.832,663.338 699,645.5C 699.653,642.861 700.82,640.527 702.5,638.5C 703.058,637.21 704.058,636.377 705.5,636C 722.833,635.333 740.167,635.333 757.5,636C 762.099,637.598 764.932,640.765 766,645.5C 766.667,663.167 766.667,680.833 766,698.5C 765.208,701.106 763.708,703.106 761.5,704.5 Z"/></g>
<g><path style="opacity:1" fill="#ff5d35" d="M 702.5,638.5 C 700.82,640.527 699.653,642.861 699,645.5C 698.832,663.338 698.332,681.005 697.5,698.5C 696.361,681.211 696.195,663.877 697,646.5C 697.725,644.051 698.725,641.717 700,639.5C 700.671,638.748 701.504,638.414 702.5,638.5 Z"/></g>
<g><path style="opacity:1" fill="#ff6037" d="M 637.5,642.5 C 637.5,671.167 637.5,699.833 637.5,728.5C 636.659,729.009 636.159,728.343 636,726.5C 635.333,699.5 635.333,672.5 636,645.5C 636.232,644.263 636.732,643.263 637.5,642.5 Z"/></g>
<g><path style="opacity:1" fill="#fe3208" d="M 761.5,704.5 C 760.527,704.987 759.527,705.487 758.5,706C 741.503,706.5 724.503,706.667 707.5,706.5C 723.995,705.668 740.662,705.168 757.5,705C 758.946,703.702 760.279,703.535 761.5,704.5 Z"/></g>
<g><path style="opacity:1" fill="#fe9e00" d="M 384.5,731.5 C 384.52,735.702 382.187,738.535 377.5,740C 334.125,740.828 292.125,740.661 251.5,739.5C 292.835,739.667 334.168,739.5 375.5,739C 379.887,738.109 382.887,735.609 384.5,731.5 Z"/></g>
</svg>
